<svg width="300" height="300" viewBox="0 0 300 300" fill="none" xmlns="http://www.w3.org/2000/svg">
<rect x="1.52588e-05" width="300" height="300" rx="34" fill="#0B2F9F"/>
<path d="M71.8756 200.342C69.9333 198.379 69.9616 195.225 71.9388 193.297L194.295 73.9946C196.272 72.0668 199.449 72.0953 201.392 74.0582L227.157 100.098C229.099 102.061 229.071 105.215 227.094 107.143L104.738 226.445C102.76 228.373 99.5831 228.344 97.6409 226.381L71.8756 200.342Z" fill="#FE8178"/>
<rect x="196.662" y="167" width="89.3053" height="40.3859" rx="20" transform="rotate(45.2106 196.662 167)" fill="#FE8178"/>
<path d="M67.8779 232.667C66.5658 232.841 65.4494 231.715 65.6341 230.405L70.3641 196.854C70.5949 195.217 72.5999 194.551 73.7644 195.725L102.622 224.814C103.786 225.988 103.104 227.988 101.465 228.205L67.8779 232.667Z" fill="#FE8178"/>
<path d="M207.516 68.0529C205.574 66.0898 205.602 62.9346 207.578 61.0055L209.127 59.4928C211.103 57.5638 214.279 57.5914 216.221 59.5545L241.984 85.5967C243.926 87.5598 243.899 90.715 241.923 92.6441L240.373 94.1568C238.397 96.0858 235.221 96.0582 233.279 94.0951L207.516 68.0529Z" fill="#FE8178"/>
<path d="M221.516 55.0529C219.574 53.0898 219.602 49.9346 221.578 48.0056L223.127 46.4928C225.103 44.5638 228.279 44.5915 230.221 46.5546L255.984 72.5967C257.926 74.5599 257.899 77.7151 255.923 79.6441L254.373 81.1568C252.397 83.0859 249.221 83.0582 247.279 81.0951L221.516 55.0529Z" fill="#FE8178"/>
<rect x="67.6619" y="35" width="89.3053" height="40.3859" rx="20" transform="rotate(45.2106 67.6619 35)" fill="#FE8178"/>
</svg>

