<svg width="300" height="300" viewBox="0 0 300 300" fill="none" xmlns="http://www.w3.org/2000/svg">
<rect x="1.52588e-05" width="300" height="300" rx="23" fill="#0B2F9F"/>
<rect x="194.098" y="164.417" width="71.9155" height="40.3859" rx="10" transform="rotate(45.2106 194.098 164.417)" fill="#FE8178"/>
<rect x="84.6346" y="52.0979" width="73.4965" height="40.3859" rx="10" transform="rotate(45.2106 84.6346 52.0979)" fill="#FE8178"/>
<path d="M67.8779 232.667C66.5658 232.841 65.4494 231.715 65.6341 230.405L70.3641 196.854C70.5949 195.217 72.5999 194.551 73.7644 195.725L102.622 224.814C103.786 225.988 103.104 227.988 101.465 228.205L67.8779 232.667Z" fill="#FE8178"/>
<path d="M71.8756 200.342C69.9333 198.379 69.9616 195.225 71.9388 193.297L183.371 84.6459C185.348 82.7181 188.525 82.7466 190.468 84.7095L216.233 110.749C218.175 112.712 218.147 115.866 216.17 117.794L104.738 226.445C102.76 228.373 99.5831 228.344 97.6409 226.381L71.8756 200.342Z" fill="#FE8178"/>
<path d="M195.516 80.0529C193.574 78.0898 193.602 74.9346 195.578 73.0055L197.127 71.4928C199.103 69.5638 202.279 69.5914 204.221 71.5545L229.984 97.5967C231.926 99.5598 231.899 102.715 229.923 104.644L228.373 106.157C226.397 108.086 223.221 108.058 221.279 106.095L195.516 80.0529Z" fill="#FE8178"/>
<path d="M209.516 67.0529C207.574 65.0898 207.602 61.9346 209.578 60.0055L211.127 58.4928C213.103 56.5638 216.279 56.5914 218.221 58.5545L243.984 84.5967C245.926 86.5598 245.899 89.715 243.923 91.6441L242.373 93.1568C240.397 95.0858 237.221 95.0582 235.279 93.0951L209.516 67.0529Z" fill="#FE8178"/>
</svg>
