<svg height="200px" width="200px" version="1.1" id="Layer_1" xmlns="http://www.w3.org/2000/svg" xmlns:xlink="http://www.w3.org/1999/xlink" viewBox="0 0 512 512" xml:space="preserve" fill="#000000"><g id="SVGRepo_bgCarrier" stroke-width="0"></g><g id="SVGRepo_tracerCarrier" stroke-linecap="round" stroke-linejoin="round"></g><g id="SVGRepo_iconCarrier"> <circle style="fill:#787878;" cx="256" cy="256" r="256"></circle> <path style="fill:#5c5f61;" d="M409.071,173.203L149.48,359.896l148.577,148.646c115.133-19.032,204.345-114.869,213.213-233.125 L409.071,173.203z"></path> <circle style="fill:#848A8C;" cx="140.705" cy="208.3" r="51.574"></circle> <circle style="fill:#909292;" cx="371.278" cy="208.3" r="51.574"></circle> <ellipse style="fill:#EDEEEF;" cx="256" cy="276.687" rx="144.808" ry="122.828"></ellipse> <path style="fill:#CACBCC;" d="M256,153.86c-0.193,0-0.381,0.012-0.574,0.012v245.632c0.193,0,0.381,0.012,0.574,0.012 c79.975,0,144.808-54.993,144.808-122.828S335.975,153.86,256,153.86z"></path> <ellipse transform="matrix(-0.2444 -0.9697 0.9697 -0.2444 -46.7551 550.5992)" style="fill:#909292;" cx="191.146" cy="293.516" rx="32.979" ry="41.616"></ellipse> <circle style="fill:#5c5f61;" cx="198.973" cy="293.495" r="8.189"></circle> <ellipse transform="matrix(-0.2444 0.9697 -0.9697 -0.2444 683.8398 54.1205)" style="fill:#909292;" cx="320.834" cy="293.496" rx="32.979" ry="41.616"></ellipse> <circle style="fill:#5c5f61;" cx="313.027" cy="293.495" r="8.189"></circle> <path style="fill:#9d9e9f;" d="M246.27,347.965l-9.973-12.828c-4.93-6.344,0.593-14.674,9.73-14.674h19.944 c9.137,0,14.662,8.33,9.73,14.674l-9.973,12.828C261.182,353.814,250.818,353.814,246.27,347.965z"></path> <path style="fill:#787878;" d="M265.973,320.464h-10.545v31.861c3.917,0.159,7.913-1.284,10.304-4.36l9.973-12.828 C280.633,328.794,275.109,320.464,265.973,320.464z"></path> </g></svg>